<svg width="3831" height="778" viewBox="0 0 3831 778" fill="none" xmlns="http://www.w3.org/2000/svg">
<path d="M392.88 777.8C338.16 777.8 287.04 768.08 239.52 748.64C192 728.48 150.24 700.76 114.24 665.48C78.24 630.2 50.16 589.16 30 542.36C10.56 494.84 0.84 443.72 0.84 389C0.84 335 10.56 284.6 30 237.8C50.16 191 77.88 150.32 113.16 115.76C149.16 80.48 190.92 53.12 238.44 33.68C285.96 14.24 337.08 4.51997 391.8 4.51997C429.96 4.51997 467.04 9.91996 503.04 20.72C539.76 31.5199 572.88 46.6399 602.4 66.0799C631.92 85.52 656.04 107.84 674.76 133.04L599.16 211.88C577.56 191 555.24 173.72 532.2 160.04C509.88 146.36 486.84 135.92 463.08 128.72C439.32 121.52 415.56 117.92 391.8 117.92C352.92 117.92 316.92 124.76 283.8 138.44C251.4 152.12 222.6 171.2 197.4 195.68C172.92 220.16 153.84 248.96 140.16 282.08C126.48 314.48 119.64 350.12 119.64 389C119.64 426.44 126.84 462.08 141.24 495.92C155.64 529.04 175.44 558.2 200.64 583.4C226.56 608.6 256.08 628.4 289.2 642.8C323.04 657.2 358.68 664.4 396.12 664.4C424.2 664.4 450.84 660.44 476.04 652.52C501.24 643.88 523.56 632 543 616.88C562.44 601.76 577.56 584.48 588.36 565.04C599.16 544.88 604.56 523.64 604.56 501.32V479.72L620.76 494.84H389.64V379.28H724.44C725.88 387.2 726.96 395.12 727.68 403.04C728.4 410.24 728.76 417.44 728.76 424.64C729.48 431.12 729.84 437.6 729.84 444.08C729.84 493.76 721.2 539.12 703.92 580.16C686.64 620.48 662.52 655.4 631.56 684.92C601.32 714.44 565.68 737.48 524.64 754.04C484.32 769.88 440.4 777.8 392.88 777.8ZM1105.57 767L1398.25 10.9999H1517.05L1807.57 767H1683.37L1510.57 311.24C1508.41 306.2 1504.09 293.96 1497.61 274.52C1491.85 255.08 1485.01 233.48 1477.09 209.72C1469.17 185.96 1461.97 164.36 1455.49 144.92C1449.01 124.76 1444.69 111.8 1442.53 106.04L1467.37 104.96C1463.05 117.2 1457.65 132.68 1451.17 151.4C1445.41 170.12 1438.93 189.92 1431.73 210.8C1425.25 231.68 1418.77 251.48 1412.29 270.2C1405.81 288.2 1400.41 303.32 1396.09 315.56L1224.37 767H1105.57ZM1235.17 579.08L1278.37 466.76H1621.81L1671.49 579.08H1235.17Z" fill="white"/>
<path d="M2476.6 777.8C2435.56 777.8 2397.4 772.4 2362.12 761.6C2327.56 750.8 2295.88 734.6 2267.08 713C2239 690.68 2213.8 663.32 2191.48 630.92L2271.4 539.12C2306.68 589.52 2340.52 624.44 2372.92 643.88C2405.32 663.32 2443.84 673.04 2488.48 673.04C2515.84 673.04 2540.68 668.72 2563 660.08C2585.32 651.44 2602.96 639.56 2615.92 624.44C2628.88 609.32 2635.36 592.04 2635.36 572.6C2635.36 559.64 2633.2 547.4 2628.88 535.88C2624.56 524.36 2617.72 513.92 2608.36 504.56C2599.72 495.2 2588.2 486.56 2573.8 478.64C2560.12 470.72 2543.92 463.88 2525.2 458.12C2506.48 451.64 2484.88 446.24 2460.4 441.92C2421.52 434 2387.68 423.56 2358.88 410.6C2330.08 397.64 2305.96 381.44 2286.52 362C2267.08 342.56 2252.68 320.6 2243.32 296.12C2233.96 270.92 2229.28 242.84 2229.28 211.88C2229.28 181.64 2235.76 153.56 2248.72 127.64C2262.4 101.72 2280.76 79.4 2303.8 60.68C2327.56 41.2399 2355.28 26.4799 2386.96 16.3999C2418.64 5.59995 2452.84 0.199959 2489.56 0.199959C2528.44 0.199959 2564.08 5.23996 2596.48 15.32C2628.88 25.4 2657.68 40.52 2682.88 60.68C2708.08 80.12 2728.96 104.24 2745.52 133.04L2663.44 214.04C2649.04 190.28 2632.84 170.48 2614.84 154.64C2596.84 138.08 2577.04 125.84 2555.44 117.92C2533.84 109.28 2510.8 104.96 2486.32 104.96C2458.24 104.96 2433.76 109.28 2412.88 117.92C2392 126.56 2375.44 138.8 2363.2 154.64C2351.68 169.76 2345.92 187.76 2345.92 208.64C2345.92 223.76 2348.8 237.8 2354.56 250.76C2360.32 263 2368.96 274.16 2380.48 284.24C2392.72 293.6 2408.92 302.24 2429.08 310.16C2449.24 317.36 2473.36 323.84 2501.44 329.6C2541.04 338.24 2576.32 349.4 2607.28 363.08C2638.24 376.04 2664.52 391.52 2686.12 409.52C2707.72 427.52 2723.92 447.68 2734.72 470C2746.24 492.32 2752 516.44 2752 542.36C2752 590.6 2740.84 632.36 2718.52 667.64C2696.2 702.92 2664.52 730.28 2623.48 749.72C2582.44 768.44 2533.48 777.8 2476.6 777.8ZM3713.52 767V10.9999H3830.16V767H3713.52ZM3219.96 767V10.9999H3336.6V767H3219.96ZM3270.72 446.24V333.92H3765.36V446.24H3270.72Z" fill="#F79817"/>
</svg>
